<?xml version="1.0" encoding="UTF-8" standalone="no"?>
<svg width="100%" height="100%" viewBox="0 0 6290 2048" version="1.1" xmlns="http://www.w3.org/2000/svg" xmlns:xlink="http://www.w3.org/1999/xlink" xml:space="preserve" xmlns:serif="http://www.serif.com/" style="fill-rule:evenodd;clip-rule:evenodd;stroke-linejoin:round;stroke-miterlimit:2;">
    <g transform="matrix(1,0,0,1,-5495.529396,-5507.191497)">
        <g transform="matrix(10.320268,0,0,3.871407,-21651.922146,35.724882)">
            <g id="full-logo" serif:id="full logo" transform="matrix(1,0,0,1,522.809042,638.389846)">
                <g transform="matrix(0.297598,0,0,0.258304,2107.689671,774.912163)">
                    <path d="M2048,204.8L2048,1843.2C2048,1956.232 2018.121,2048 1981.318,2048L66.682,2048C29.879,2048 0,1956.232 0,1843.2L0,204.8C0,91.768 29.879,0 66.682,0L1981.318,0C2018.121,0 2048,91.768 2048,204.8Z" style="fill:rgb(112,32,208);"/>
                </g>
                <g transform="matrix(3.946302,0,0,10.519922,-20223.479055,-13735.180849)">
                    <path d="M5744.815,1403.248C5744.108,1404.081 5743.097,1404.911 5742.532,1405.352C5741.248,1406.352 5740.09,1406.852 5739.057,1406.852C5738.023,1406.852 5737.207,1406.552 5736.607,1405.952C5736.007,1405.352 5735.707,1404.602 5735.707,1403.702C5735.707,1402.802 5736.282,1401.227 5737.432,1398.977C5738.582,1396.727 5739.157,1395.068 5739.157,1394.002C5739.157,1393.535 5738.965,1393.11 5738.582,1392.727C5738.198,1392.343 5737.74,1392.152 5737.207,1392.152C5735.507,1392.152 5733.79,1393.443 5732.057,1396.027C5730.323,1398.61 5728.32,1405.864 5726.34,1406.902C5725.25,1407.473 5723.654,1407.19 5723.257,1406.152C5722.519,1404.225 5724.798,1398.51 5725.982,1394.827C5727.165,1391.143 5730.208,1387.1 5731.307,1387.552C5734.808,1388.99 5726.187,1395.381 5725.849,1403.373C5730.49,1393.639 5736.509,1386.965 5740.375,1386.965C5741.209,1386.965 5745.407,1387.684 5743.057,1392.927C5742.791,1393.518 5737.225,1402.754 5738.839,1404.044C5740.42,1405.307 5741.573,1400.559 5744.33,1400.828C5744.33,1400.786 5744.329,1400.744 5744.329,1400.702C5744.329,1399.168 5746.387,1396.056 5747.099,1393.783C5747.913,1391.186 5747.182,1387.429 5749.429,1387.352C5752.763,1387.237 5748.654,1396.384 5748.279,1397.802C5747.864,1399.372 5748.563,1400.252 5749.129,1400.752C5749.696,1401.252 5750.529,1401.502 5751.629,1401.502C5752.729,1401.502 5753.971,1400.843 5755.354,1399.527C5756.738,1398.21 5760.408,1392.831 5761.779,1391.702C5762.315,1391.26 5763.577,1391.667 5763.579,1392.752C5763.582,1393.922 5762.721,1395.843 5761.804,1398.727C5760.888,1401.61 5760.263,1403.818 5759.929,1405.352C5759.929,1405.352 5763.691,1402.463 5763.979,1403.752C5764.268,1405.041 5762.446,1405.752 5759.479,1406.852C5759.079,1409.052 5758.571,1411.227 5757.954,1413.377C5757.338,1415.527 5756.721,1417.16 5756.104,1418.277C5755.488,1419.393 5754.763,1420.502 5753.929,1421.602C5752.263,1423.802 5750.013,1424.902 5747.179,1424.902C5745.779,1424.902 5744.663,1424.468 5743.829,1423.602C5742.996,1422.735 5742.579,1421.552 5742.579,1420.052C5742.579,1414.285 5747.413,1409.652 5757.079,1406.152L5759.779,1396.652C5756.913,1400.952 5754.329,1403.602 5752.029,1404.602C5750.896,1405.135 5749.704,1405.402 5748.454,1405.402C5747.204,1405.402 5746.204,1405.002 5745.454,1404.202C5745.197,1403.927 5744.984,1403.609 5744.815,1403.248ZM5756.779,1407.652C5754.679,1408.618 5752.829,1409.718 5751.229,1410.952C5748.229,1413.218 5746.729,1415.418 5746.729,1417.552C5746.729,1418.352 5746.963,1419.002 5747.429,1419.502C5747.896,1420.002 5748.479,1420.252 5749.179,1420.252C5752.513,1420.252 5755.046,1416.052 5756.779,1407.652ZM5665.357,1392.002C5665.357,1390.368 5666.967,1386.924 5671.725,1386.924C5676.018,1386.924 5679.101,1391.152 5677.095,1391.847C5675.089,1392.542 5675.209,1388.287 5672,1388.287C5670.3,1388.287 5669.264,1389.854 5669.264,1391.837C5669.264,1395.244 5674.937,1393.877 5674.937,1400.092C5674.937,1402.669 5672.265,1406.902 5668.301,1406.902C5663.365,1406.902 5659.779,1401.595 5662.057,1400.902C5664.084,1400.285 5663.046,1403.959 5667.247,1404.957C5669.493,1405.49 5672.708,1403.641 5672.584,1400.663C5672.417,1396.685 5665.357,1396.452 5665.357,1392.002ZM5676.957,1403.084C5676.946,1403.429 5676.941,1403.776 5676.941,1404.126C5676.941,1419.008 5667.819,1423.256 5666.792,1420.802C5664.976,1416.465 5674.958,1413.071 5674.958,1404.189C5674.958,1394.114 5680.366,1386.965 5687.034,1386.965C5691.356,1386.965 5693.363,1391.314 5692.207,1396.345C5691.065,1401.312 5686.261,1406.902 5682.327,1406.902C5679.85,1406.902 5677.715,1404.854 5676.957,1403.084ZM5677.116,1400.814C5677.16,1400.782 5677.208,1400.752 5677.259,1400.726C5679.267,1399.673 5678.296,1405.101 5682.319,1405.101C5685.068,1405.101 5689.342,1399.841 5689.966,1395.67C5690.728,1390.577 5687.41,1388.829 5685.162,1389.353C5680.183,1390.515 5677.754,1395.062 5677.116,1400.814ZM5706.314,1388.017C5709.571,1390.476 5709.554,1396.467 5706.278,1401.388C5703.001,1406.309 5697.696,1408.308 5694.44,1405.85C5691.183,1403.391 5691.199,1397.4 5694.476,1392.479C5697.753,1387.557 5703.057,1385.558 5706.314,1388.017ZM5705.699,1389.58C5703.665,1388.045 5699.766,1388.752 5697.38,1392.004C5693.847,1396.821 5693.927,1401.757 5696.902,1403.454C5699.115,1404.717 5703.099,1401.8 5705.334,1398.444C5707.569,1395.087 5707.733,1391.115 5705.699,1389.58ZM5722.614,1388.017C5725.87,1390.476 5725.854,1396.467 5722.577,1401.388C5719.301,1406.309 5713.996,1408.308 5710.739,1405.85C5707.483,1403.391 5707.499,1397.4 5710.776,1392.479C5714.053,1387.557 5719.357,1385.558 5722.614,1388.017ZM5721.999,1389.58C5719.965,1388.045 5716.065,1388.752 5713.68,1392.004C5710.147,1396.821 5710.227,1401.757 5713.202,1403.454C5715.415,1404.717 5719.399,1401.8 5721.634,1398.444C5723.869,1395.087 5724.032,1391.115 5721.999,1389.58Z" style="fill:white;"/>
                </g>
                <g transform="matrix(1,0,0,1,-13.273992,-8.152404)">
                    <g transform="matrix(0.142626,0,0,0.380207,2505.03636,688.425649)">
                        <path d="M1580.413,660.015C1507.355,706.688 1444.434,757.968 1404.61,811.135C1279.199,978.564 1287.988,1231.089 899.944,1393.251C653.523,1496.229 243.597,1400.969 224.531,1237.388C281.784,1321.225 534.481,1411.194 886.603,1287.457C1268.65,1153.204 1259.934,900.994 1374.826,786.102C1417.883,743.045 1486.411,667.104 1580.413,589.901L1580.413,660.015Z" style="fill:rgb(124,236,156);"/>
                    </g>
                    <g transform="matrix(0.142626,0,0,0.380207,2505.03636,688.425649)">
                        <path d="M1580.413,622.768C1518.704,664.633 1471.048,706.542 1438.88,744.31C1272.632,939.503 1277.614,1169.638 895.567,1303.89C518.793,1436.29 246.334,1336.717 226.274,1247.356C206.213,1157.995 361.591,1042.009 576.422,951.919C893.537,818.935 1059.699,899.032 1198.299,851.616C1336.737,804.255 1335.079,702.312 1580.413,529.429L1580.413,622.768Z" style="fill:rgb(20,143,0);"/>
                    </g>
                    <g transform="matrix(0.096897,0,0,0.258304,2516.473399,719.194288)">
                        <path d="M266.049,1798.049C350.109,1857.199 406.862,1876.8 579.564,1898.552C416.542,1925.683 325.171,1857.714 266.049,1798.049ZM1085.394,1950.947C1294.34,1867.704 1463.139,1805.604 1702.369,1508.722C1566.193,1757.612 1354.604,1874.054 1085.394,1950.947ZM1517.128,1164.096C1717.426,1147.373 1790.65,1076.084 1913.582,939.413C1981.97,863.382 2016.334,805.294 2177.403,697.547C2014.124,830.606 1983.533,894.877 1922.57,960.91C1776.595,1119.024 1637.873,1177.434 1517.128,1164.096Z" style="fill:white;"/>
                    </g>
                    <g transform="matrix(0.142626,0,0,0.380207,2505.03636,688.425649)">
                        <path d="M881.429,1263.658C666.448,1339.204 487.279,1336.646 374.141,1303.106C339.986,1292.981 312.331,1280.208 292.505,1265.78C279.758,1256.504 270.104,1247.912 267.882,1238.015C265.802,1228.748 268.322,1219.082 273.038,1208.928C280.343,1193.2 292.878,1177.207 309.22,1160.78C367.35,1102.35 470.159,1042.722 592.913,991.245C775.935,914.493 906.716,911.693 1010.829,911.751C1053.651,911.774 1229.587,913.974 1205.373,1000.082C1167.538,1134.623 994.655,1223.87 881.429,1263.658Z" style="fill:rgb(53,82,60);"/>
                    </g>
                    <g transform="matrix(0.142626,0,0,0.380207,2505.03636,688.425649)">
                        <path d="M480.298,995.955C550.866,911.491 626.321,837.534 680.372,827.908C723.038,820.31 789.831,842.345 860.904,875.8C884.998,887.142 909.585,899.796 933.89,913.053C1044.57,973.423 1149.413,1046.292 1175.395,1064.644C1110.579,1163.49 975.441,1230.622 881.429,1263.658C666.448,1339.204 487.279,1336.646 374.141,1303.106C339.986,1292.981 312.331,1280.208 292.505,1265.78C290.546,1264.354 288.66,1262.945 286.862,1261.544C298.567,1243.371 348.634,1166.536 411.977,1082.399C433.541,1053.755 456.645,1024.265 480.298,995.955ZM415.148,844.302L386.304,852.031C378.344,854.164 370.15,849.433 368.018,841.473L360.289,812.629C358.156,804.669 362.887,796.475 370.846,794.342L399.691,786.613C407.651,784.481 415.845,789.211 417.977,797.171L425.706,826.016C427.839,833.975 423.108,842.169 415.148,844.302ZM334.72,990.258L328.706,1012.701C327.047,1018.894 320.672,1022.575 314.479,1020.915L292.036,1014.902C285.843,1013.242 282.162,1006.867 283.822,1000.674L289.835,978.232C291.495,972.039 297.87,968.358 304.063,970.017L326.505,976.031C332.699,977.69 336.379,984.065 334.72,990.258ZM413.781,915.438L432.272,926.113C437.374,929.059 439.125,935.593 436.179,940.696L425.504,959.186C422.558,964.288 416.023,966.039 410.921,963.093L392.431,952.418C387.328,949.472 385.577,942.938 388.523,937.835L399.199,919.345C402.145,914.243 408.679,912.492 413.781,915.438ZM309.468,885.782L301.685,883.697C299.537,883.121 298.261,880.91 298.836,878.762L300.922,870.979C301.497,868.831 303.708,867.555 305.856,868.13L313.64,870.216C315.787,870.791 317.064,873.002 316.488,875.15L314.403,882.933C313.827,885.081 311.616,886.358 309.468,885.782ZM496.483,864.25L493.042,877.094C492.092,880.639 488.443,882.745 484.899,881.796L472.054,878.354C468.51,877.404 466.403,873.755 467.353,870.211L470.794,857.366C471.744,853.822 475.393,851.715 478.938,852.665L491.782,856.107C495.327,857.056 497.433,860.705 496.483,864.25Z" style="fill:white;"/>
                    </g>
                </g>
            </g>
        </g>
    </g>
</svg>
