<?xml version="1.0" encoding="UTF-8" standalone="no"?>
<svg width="100%" height="100%" viewBox="0 0 2048 2048" version="1.1" xmlns="http://www.w3.org/2000/svg" xmlns:xlink="http://www.w3.org/1999/xlink" xml:space="preserve" xmlns:serif="http://www.serif.com/" style="fill-rule:evenodd;clip-rule:evenodd;stroke-linejoin:round;stroke-miterlimit:2;">
    <g transform="matrix(1,0,0,1,-7723.544857,-521.143098)">
        <g transform="matrix(10.320268,0,0,3.871407,-21651.922146,35.724882)">
            <g id="simple-logo" serif:id="simple logo" transform="matrix(1,0,0,1,208.124121,0)">
                <g transform="matrix(0.096897,0,0,0.258304,2638.261957,125.385493)">
                    <path d="M2048,204.8L2048,1843.2C2048,1956.232 1956.232,2048 1843.2,2048L204.8,2048C91.768,2048 0,1956.232 0,1843.2L0,204.8C0,91.768 91.768,0 204.8,0L1843.2,0C1956.232,0 2048,91.768 2048,204.8Z" style="fill:rgb(112,32,208);"/>
                </g>
                <g transform="matrix(0.142626,0,0,0.380207,2611.298815,30.746575)">
                    <path d="M1580.413,660.015C1507.355,706.688 1444.434,757.968 1404.61,811.135C1279.199,978.564 1287.988,1231.089 899.944,1393.251C653.523,1496.229 243.597,1400.969 224.531,1237.388C281.784,1321.225 534.481,1411.194 886.603,1287.457C1268.65,1153.204 1259.934,900.994 1374.826,786.102C1417.883,743.045 1486.411,667.104 1580.413,589.901L1580.413,660.015Z" style="fill:rgb(124,236,156);"/>
                </g>
                <g transform="matrix(0.142626,0,0,0.380207,2611.298815,30.746575)">
                    <path d="M1580.413,622.768C1518.704,664.633 1471.048,706.542 1438.88,744.31C1272.632,939.503 1277.614,1169.638 895.567,1303.89C518.793,1436.29 246.334,1336.717 226.274,1247.356C206.213,1157.995 361.591,1042.009 576.422,951.919C893.537,818.935 1059.699,899.032 1198.299,851.616C1336.737,804.255 1335.079,702.312 1580.413,529.429L1580.413,622.768Z" style="fill:rgb(20,143,0);"/>
                </g>
                <g transform="matrix(0.142626,0,0,0.380207,2611.298815,30.746575)">
                    <path d="M881.429,1263.658C666.448,1339.204 487.279,1336.646 374.141,1303.106C339.986,1292.981 312.331,1280.208 292.505,1265.78C279.758,1256.504 270.104,1247.912 267.882,1238.015C265.802,1228.748 268.322,1219.082 273.038,1208.928C280.343,1193.2 292.878,1177.207 309.22,1160.78C367.35,1102.35 470.159,1042.722 592.913,991.245C775.935,914.493 906.716,911.693 1010.829,911.751C1053.651,911.774 1229.587,913.974 1205.373,1000.082C1167.538,1134.623 994.655,1223.87 881.429,1263.658Z" style="fill:rgb(53,82,60);"/>
                </g>
                <g transform="matrix(0.142626,0,0,0.380207,2611.298815,30.746575)">
                    <path d="M480.298,995.955C550.866,911.491 626.321,837.534 680.372,827.908C723.038,820.31 789.831,842.345 860.904,875.8C884.998,887.142 909.585,899.796 933.89,913.053C1044.57,973.423 1149.413,1046.292 1175.395,1064.644C1110.579,1163.49 975.441,1230.622 881.429,1263.658C666.448,1339.204 487.279,1336.646 374.141,1303.106C339.986,1292.981 312.331,1280.208 292.505,1265.78C290.546,1264.354 288.66,1262.945 286.862,1261.544C298.567,1243.371 348.634,1166.536 411.977,1082.399C433.541,1053.755 456.645,1024.265 480.298,995.955ZM415.148,844.302L386.304,852.031C378.344,854.164 370.15,849.433 368.018,841.473L360.289,812.629C358.156,804.669 362.887,796.475 370.846,794.342L399.691,786.613C407.651,784.481 415.845,789.211 417.977,797.171L425.706,826.016C427.839,833.975 423.108,842.169 415.148,844.302ZM334.72,990.258L328.706,1012.701C327.047,1018.894 320.672,1022.575 314.479,1020.915L292.036,1014.902C285.843,1013.242 282.162,1006.867 283.822,1000.674L289.835,978.232C291.495,972.039 297.87,968.358 304.063,970.017L326.505,976.031C332.699,977.69 336.379,984.065 334.72,990.258ZM413.781,915.438L432.272,926.113C437.374,929.059 439.125,935.593 436.179,940.696L425.504,959.186C422.558,964.288 416.023,966.039 410.921,963.093L392.431,952.418C387.328,949.472 385.577,942.938 388.523,937.835L399.199,919.345C402.145,914.243 408.679,912.492 413.781,915.438ZM309.468,885.782L301.685,883.697C299.537,883.121 298.261,880.91 298.836,878.762L300.922,870.979C301.497,868.831 303.708,867.555 305.856,868.13L313.64,870.216C315.787,870.791 317.064,873.002 316.488,875.15L314.403,882.933C313.827,885.081 311.616,886.358 309.468,885.782ZM496.483,864.25L493.042,877.094C492.092,880.639 488.443,882.745 484.899,881.796L472.054,878.354C468.51,877.404 466.403,873.755 467.353,870.211L470.794,857.366C471.744,853.822 475.393,851.715 478.938,852.665L491.782,856.107C495.327,857.056 497.433,860.705 496.483,864.25Z" style="fill:white;"/>
                </g>
            </g>
        </g>
    </g>
</svg>
