<?xml version="1.0" encoding="UTF-8" standalone="no"?>
<svg width="100%" height="100%" viewBox="0 0 854 366" version="1.1" xmlns="http://www.w3.org/2000/svg" xmlns:xlink="http://www.w3.org/1999/xlink" xml:space="preserve" xmlns:serif="http://www.serif.com/" style="fill-rule:evenodd;clip-rule:evenodd;stroke-linejoin:round;stroke-miterlimit:2;">
    <g transform="matrix(1,0,0,1,-497.454659,-11108.381657)">
        <g transform="matrix(0.297095,0,0,0.326171,-6069.177132,8965.068316)">
            <g transform="matrix(1.402301,0,0,0.415883,22102.791406,6571.135762)">
                <path d="M2048,204.8L2048,1843.2C2048,1956.232 2018.121,2048 1981.318,2048L66.682,2048C29.879,2048 0,1956.232 0,1843.2L0,204.8C0,91.768 29.879,0 66.682,0L1981.318,0C2018.121,0 2048,91.768 2048,204.8Z" style="fill:rgb(112,32,208);"/>
            </g>
            <g transform="matrix(18.595242,0,0,16.93761,-83123.177244,-16790.852024)">
                <path d="M5744.815,1403.248C5744.108,1404.081 5743.097,1404.911 5742.532,1405.352C5741.248,1406.352 5740.09,1406.852 5739.057,1406.852C5738.023,1406.852 5737.207,1406.552 5736.607,1405.952C5736.007,1405.352 5735.707,1404.602 5735.707,1403.702C5735.707,1402.802 5736.282,1401.227 5737.432,1398.977C5738.582,1396.727 5739.157,1395.068 5739.157,1394.002C5739.157,1393.535 5738.965,1393.11 5738.582,1392.727C5738.198,1392.343 5737.74,1392.152 5737.207,1392.152C5735.507,1392.152 5733.79,1393.443 5732.057,1396.027C5730.323,1398.61 5728.32,1405.864 5726.34,1406.902C5725.25,1407.473 5723.654,1407.19 5723.257,1406.152C5722.519,1404.225 5724.798,1398.51 5725.982,1394.827C5727.165,1391.143 5730.208,1387.1 5731.307,1387.552C5734.808,1388.99 5726.187,1395.381 5725.849,1403.373C5730.49,1393.639 5736.509,1386.965 5740.375,1386.965C5741.209,1386.965 5745.407,1387.684 5743.057,1392.927C5742.791,1393.518 5737.225,1402.754 5738.839,1404.044C5740.42,1405.307 5741.573,1400.559 5744.33,1400.828C5744.33,1400.786 5744.329,1400.744 5744.329,1400.702C5744.329,1399.168 5746.387,1396.056 5747.099,1393.783C5747.913,1391.186 5747.182,1387.429 5749.429,1387.352C5752.763,1387.237 5748.654,1396.384 5748.279,1397.802C5747.864,1399.372 5748.563,1400.252 5749.129,1400.752C5749.696,1401.252 5750.529,1401.502 5751.629,1401.502C5752.729,1401.502 5753.971,1400.843 5755.354,1399.527C5756.738,1398.21 5760.408,1392.831 5761.779,1391.702C5762.315,1391.26 5763.577,1391.667 5763.579,1392.752C5763.582,1393.922 5762.721,1395.843 5761.804,1398.727C5760.888,1401.61 5760.263,1403.818 5759.929,1405.352C5759.929,1405.352 5763.691,1402.463 5763.979,1403.752C5764.268,1405.041 5762.446,1405.752 5759.479,1406.852C5759.079,1409.052 5758.571,1411.227 5757.954,1413.377C5757.338,1415.527 5756.721,1417.16 5756.104,1418.277C5755.488,1419.393 5754.763,1420.502 5753.929,1421.602C5752.263,1423.802 5750.013,1424.902 5747.179,1424.902C5745.779,1424.902 5744.663,1424.468 5743.829,1423.602C5742.996,1422.735 5742.579,1421.552 5742.579,1420.052C5742.579,1414.285 5747.413,1409.652 5757.079,1406.152L5759.779,1396.652C5756.913,1400.952 5754.329,1403.602 5752.029,1404.602C5750.896,1405.135 5749.704,1405.402 5748.454,1405.402C5747.204,1405.402 5746.204,1405.002 5745.454,1404.202C5745.197,1403.927 5744.984,1403.609 5744.815,1403.248ZM5756.779,1407.652C5754.679,1408.618 5752.829,1409.718 5751.229,1410.952C5748.229,1413.218 5746.729,1415.418 5746.729,1417.552C5746.729,1418.352 5746.963,1419.002 5747.429,1419.502C5747.896,1420.002 5748.479,1420.252 5749.179,1420.252C5752.513,1420.252 5755.046,1416.052 5756.779,1407.652ZM5665.357,1392.002C5665.357,1390.368 5666.967,1386.924 5671.725,1386.924C5676.018,1386.924 5679.101,1391.152 5677.095,1391.847C5675.089,1392.542 5675.209,1388.287 5672,1388.287C5670.3,1388.287 5669.264,1389.854 5669.264,1391.837C5669.264,1395.244 5674.937,1393.877 5674.937,1400.092C5674.937,1402.669 5672.265,1406.902 5668.301,1406.902C5663.365,1406.902 5659.779,1401.595 5662.057,1400.902C5664.084,1400.285 5663.046,1403.959 5667.247,1404.957C5669.493,1405.49 5672.708,1403.641 5672.584,1400.663C5672.417,1396.685 5665.357,1396.452 5665.357,1392.002ZM5676.957,1403.084C5676.946,1403.429 5676.941,1403.776 5676.941,1404.126C5676.941,1419.008 5667.819,1423.256 5666.792,1420.802C5664.976,1416.465 5674.958,1413.071 5674.958,1404.189C5674.958,1394.114 5680.366,1386.965 5687.034,1386.965C5691.356,1386.965 5693.363,1391.314 5692.207,1396.345C5691.065,1401.312 5686.261,1406.902 5682.327,1406.902C5679.85,1406.902 5677.715,1404.854 5676.957,1403.084ZM5677.116,1400.814C5677.16,1400.782 5677.208,1400.752 5677.259,1400.726C5679.267,1399.673 5678.296,1405.101 5682.319,1405.101C5685.068,1405.101 5689.342,1399.841 5689.966,1395.67C5690.728,1390.577 5687.41,1388.829 5685.162,1389.353C5680.183,1390.515 5677.754,1395.062 5677.116,1400.814ZM5706.314,1388.017C5709.571,1390.476 5709.554,1396.467 5706.278,1401.388C5703.001,1406.309 5697.696,1408.308 5694.44,1405.85C5691.183,1403.391 5691.199,1397.4 5694.476,1392.479C5697.753,1387.557 5703.057,1385.558 5706.314,1388.017ZM5705.699,1389.58C5703.665,1388.045 5699.766,1388.752 5697.38,1392.004C5693.847,1396.821 5693.927,1401.757 5696.902,1403.454C5699.115,1404.717 5703.099,1401.8 5705.334,1398.444C5707.569,1395.087 5707.733,1391.115 5705.699,1389.58ZM5722.614,1388.017C5725.87,1390.476 5725.854,1396.467 5722.577,1401.388C5719.301,1406.309 5713.996,1408.308 5710.739,1405.85C5707.483,1403.391 5707.499,1397.4 5710.776,1392.479C5714.053,1387.557 5719.357,1385.558 5722.614,1388.017ZM5721.999,1389.58C5719.965,1388.045 5716.065,1388.752 5713.68,1392.004C5710.147,1396.821 5710.227,1401.757 5713.202,1403.454C5715.415,1404.717 5719.399,1401.8 5721.634,1398.444C5723.869,1395.087 5724.032,1391.115 5721.999,1389.58Z" style="fill:white;"/>
            </g>
            <g transform="matrix(0.672062,0,0,0.612153,23912.567782,6418.76229)">
                <path d="M1580.413,660.015C1507.355,706.688 1444.434,757.968 1404.61,811.135C1279.199,978.564 1287.988,1231.089 899.944,1393.251C653.523,1496.229 243.597,1400.969 224.531,1237.388C281.784,1321.225 534.481,1411.194 886.603,1287.457C1268.65,1153.204 1259.934,900.994 1374.826,786.102C1417.883,743.045 1486.411,667.104 1580.413,589.901L1580.413,660.015Z" style="fill:rgb(124,236,156);"/>
            </g>
            <g transform="matrix(0.672062,0,0,0.612153,23912.567782,6418.76229)">
                <path d="M1580.413,622.768C1518.704,664.633 1471.048,706.542 1438.88,744.31C1272.632,939.503 1277.614,1169.638 895.567,1303.89C518.793,1436.29 246.334,1336.717 226.274,1247.356C206.213,1157.995 361.591,1042.009 576.422,951.919C893.537,818.935 1059.699,899.032 1198.299,851.616C1336.737,804.255 1335.079,702.312 1580.413,529.429L1580.413,622.768Z" style="fill:rgb(20,143,0);"/>
            </g>
            <g transform="matrix(0.456584,0,0,0.415883,23966.459879,6468.301364)">
                <path d="M266.049,1798.049C350.109,1857.199 406.862,1876.8 579.564,1898.552C416.542,1925.683 325.171,1857.714 266.049,1798.049ZM1085.394,1950.947C1294.34,1867.704 1463.139,1805.604 1702.369,1508.722C1566.193,1757.612 1354.604,1874.054 1085.394,1950.947ZM1517.128,1164.096C1717.426,1147.373 1790.65,1076.084 1913.582,939.413C1981.97,863.382 2016.334,805.294 2177.403,697.547C2014.124,830.606 1983.533,894.877 1922.57,960.91C1776.595,1119.024 1637.873,1177.434 1517.128,1164.096Z" style="fill:white;"/>
            </g>
            <g transform="matrix(0.672062,0,0,0.612153,23912.567782,6418.76229)">
                <path d="M881.429,1263.658C666.448,1339.204 487.279,1336.646 374.141,1303.106C339.986,1292.981 312.331,1280.208 292.505,1265.78C279.758,1256.504 270.104,1247.912 267.882,1238.015C265.802,1228.748 268.322,1219.082 273.038,1208.928C280.343,1193.2 292.878,1177.207 309.22,1160.78C367.35,1102.35 470.159,1042.722 592.913,991.245C775.935,914.493 906.716,911.693 1010.829,911.751C1053.651,911.774 1229.587,913.974 1205.373,1000.082C1167.538,1134.623 994.655,1223.87 881.429,1263.658Z" style="fill:rgb(53,82,60);"/>
            </g>
            <g transform="matrix(0.672062,0,0,0.612153,23912.567782,6418.76229)">
                <path d="M480.298,995.955C550.866,911.491 626.321,837.534 680.372,827.908C723.038,820.31 789.831,842.345 860.904,875.8C884.998,887.142 909.585,899.796 933.89,913.053C1044.57,973.423 1149.413,1046.292 1175.395,1064.644C1110.579,1163.49 975.441,1230.622 881.429,1263.658C666.448,1339.204 487.279,1336.646 374.141,1303.106C339.986,1292.981 312.331,1280.208 292.505,1265.78C290.546,1264.354 288.66,1262.945 286.862,1261.544C298.567,1243.371 348.634,1166.536 411.977,1082.399C433.541,1053.755 456.645,1024.265 480.298,995.955ZM415.148,844.302L386.304,852.031C378.344,854.164 370.15,849.433 368.018,841.473L360.289,812.629C358.156,804.669 362.887,796.475 370.846,794.342L399.691,786.613C407.651,784.481 415.845,789.211 417.977,797.171L425.706,826.016C427.839,833.975 423.108,842.169 415.148,844.302ZM334.72,990.258L328.706,1012.701C327.047,1018.894 320.672,1022.575 314.479,1020.915L292.036,1014.902C285.843,1013.242 282.162,1006.867 283.822,1000.674L289.835,978.232C291.495,972.039 297.87,968.358 304.063,970.017L326.505,976.031C332.699,977.69 336.379,984.065 334.72,990.258ZM413.781,915.438L432.272,926.113C437.374,929.059 439.125,935.593 436.179,940.696L425.504,959.186C422.558,964.288 416.023,966.039 410.921,963.093L392.431,952.418C387.328,949.472 385.577,942.938 388.523,937.835L399.199,919.345C402.145,914.243 408.679,912.492 413.781,915.438ZM309.468,885.782L301.685,883.697C299.537,883.121 298.261,880.91 298.836,878.762L300.922,870.979C301.497,868.831 303.708,867.555 305.856,868.13L313.64,870.216C315.787,870.791 317.064,873.002 316.488,875.15L314.403,882.933C313.827,885.081 311.616,886.358 309.468,885.782ZM496.483,864.25L493.042,877.094C492.092,880.639 488.443,882.745 484.899,881.796L472.054,878.354C468.51,877.404 466.403,873.755 467.353,870.211L470.794,857.366C471.744,853.822 475.393,851.715 478.938,852.665L491.782,856.107C495.327,857.056 497.433,860.705 496.483,864.25Z" style="fill:white;"/>
            </g>
            <g transform="matrix(4.84113,0,0,4.409578,-4906.674637,1402.530567)">
                <path d="M5689.057,1369.952L5691.607,1370.852L5690.907,1372.152C5687.24,1378.985 5684.124,1385.602 5681.557,1392.002C5679.857,1396.202 5679.007,1399.352 5679.007,1401.452C5679.007,1401.985 5679.14,1402.41 5679.407,1402.727C5679.674,1403.043 5680.099,1403.202 5680.682,1403.202C5681.265,1403.202 5681.94,1402.818 5682.707,1402.052L5683.607,1402.902C5683.174,1403.868 5682.424,1404.76 5681.357,1405.577C5680.29,1406.393 5679.257,1406.802 5678.257,1406.802C5676.324,1406.802 5675.357,1405.668 5675.357,1403.402C5675.357,1402.068 5675.724,1400.018 5676.457,1397.252C5672.524,1404.118 5668.674,1407.552 5664.907,1407.552C5663.607,1407.552 5662.574,1407.152 5661.807,1406.352C5661.04,1405.552 5660.657,1404.468 5660.657,1403.102C5660.657,1400.935 5661.524,1398.685 5663.257,1396.352C5664.99,1394.018 5667.124,1392.11 5669.657,1390.627C5672.19,1389.143 5674.557,1388.402 5676.757,1388.402L5676.907,1390.152C5674.04,1390.518 5671.365,1391.76 5668.882,1393.877C5666.399,1395.993 5665.157,1398.152 5665.157,1400.352C5665.157,1401.285 5665.407,1402.027 5665.907,1402.577C5666.407,1403.127 5667.057,1403.402 5667.857,1403.402C5669.49,1403.402 5671.624,1401.652 5674.257,1398.152C5675.224,1396.885 5676.332,1395.035 5677.582,1392.602C5678.832,1390.168 5679.832,1388.21 5680.582,1386.727C5681.332,1385.243 5682.065,1383.793 5682.782,1382.377C5683.499,1380.96 5684.44,1379.093 5685.607,1376.777C5686.774,1374.46 5687.924,1372.185 5689.057,1369.952Z" style="fill:white;fill-rule:nonzero;"/>
            </g>
            <g transform="matrix(4.84113,0,0,4.409578,-4906.674637,1402.530567)">
                <path d="M5710.257,1401.852L5711.407,1402.702C5710.94,1403.702 5710.082,1404.652 5708.832,1405.552C5707.582,1406.452 5706.44,1406.902 5705.407,1406.902C5703.44,1406.902 5702.457,1405.868 5702.457,1403.802C5702.457,1402.835 5702.707,1401.685 5703.207,1400.352L5701.357,1402.252C5699.557,1404.085 5697.999,1405.318 5696.682,1405.952C5695.365,1406.585 5694.074,1406.902 5692.807,1406.902C5691.54,1406.902 5690.582,1406.543 5689.932,1405.827C5689.282,1405.11 5688.957,1404.118 5688.957,1402.852C5688.957,1400.518 5689.857,1398.21 5691.657,1395.927C5693.457,1393.643 5695.757,1391.785 5698.557,1390.352C5701.357,1388.918 5704.157,1388.185 5706.957,1388.152L5707.057,1389.802L5704.957,1390.252C5701.924,1390.918 5699.249,1392.252 5696.932,1394.252C5694.615,1396.252 5693.457,1398.243 5693.457,1400.227C5693.457,1402.21 5694.257,1403.202 5695.857,1403.202C5697.357,1403.202 5699.207,1402.152 5701.407,1400.052C5703.607,1397.952 5705.44,1395.485 5706.907,1392.652L5709.007,1393.902C5706.94,1398.068 5705.907,1400.718 5705.907,1401.852C5705.907,1402.318 5706.065,1402.71 5706.382,1403.027C5706.699,1403.343 5707.015,1403.502 5707.332,1403.502C5707.649,1403.502 5707.857,1403.485 5707.957,1403.452C5708.057,1403.418 5708.157,1403.377 5708.257,1403.327C5708.357,1403.277 5708.482,1403.202 5708.632,1403.102C5708.782,1403.002 5708.915,1402.902 5709.032,1402.802C5709.149,1402.702 5709.34,1402.552 5709.607,1402.352C5709.874,1402.152 5710.09,1401.985 5710.257,1401.852Z" style="fill:white;fill-rule:nonzero;"/>
            </g>
            <g transform="matrix(4.84113,0,0,4.409578,-4906.674637,1402.530567)">
                <path d="M5722.457,1385.702C5720.59,1385.702 5719.657,1384.952 5719.657,1383.452C5719.657,1382.618 5719.89,1381.918 5720.357,1381.352C5720.824,1380.785 5721.424,1380.502 5722.157,1380.502C5722.89,1380.502 5723.49,1380.718 5723.957,1381.152C5724.424,1381.585 5724.657,1382.152 5724.657,1382.852C5724.657,1383.552 5724.457,1384.202 5724.057,1384.802C5723.657,1385.402 5723.124,1385.702 5722.457,1385.702ZM5721.807,1400.452L5722.807,1401.302C5722.007,1402.835 5720.949,1404.143 5719.632,1405.227C5718.315,1406.31 5717.124,1406.852 5716.057,1406.852C5714.19,1406.852 5713.257,1405.552 5713.257,1402.952C5713.257,1399.718 5714.59,1395.502 5717.257,1390.302C5717.857,1389.168 5718.207,1388.502 5718.307,1388.302L5720.457,1389.602C5719.757,1390.868 5718.899,1392.885 5717.882,1395.652C5716.865,1398.418 5716.357,1400.193 5716.357,1400.977C5716.357,1401.76 5716.524,1402.318 5716.857,1402.652C5717.19,1402.985 5717.59,1403.152 5718.057,1403.152C5718.957,1403.152 5720.207,1402.252 5721.807,1400.452Z" style="fill:white;fill-rule:nonzero;"/>
            </g>
            <g transform="matrix(4.84113,0,0,4.409578,-4906.674637,1402.530567)">
                <path d="M5733.457,1402.102L5734.507,1402.952C5733.374,1404.718 5732.399,1405.993 5731.582,1406.777C5730.765,1407.56 5729.857,1407.952 5728.857,1407.952C5727.857,1407.952 5727.04,1407.552 5726.407,1406.752C5725.774,1405.952 5725.457,1404.952 5725.457,1403.752C5725.457,1401.418 5726.99,1396.393 5730.057,1388.677C5733.124,1380.96 5736.274,1374.168 5739.507,1368.302L5741.707,1369.502C5738.44,1375.835 5735.49,1382.127 5732.857,1388.377C5730.224,1394.627 5728.907,1399.118 5728.907,1401.852C5728.907,1403.418 5729.49,1404.202 5730.657,1404.202C5731.59,1404.202 5732.524,1403.502 5733.457,1402.102Z" style="fill:white;fill-rule:nonzero;"/>
            </g>
            <g transform="matrix(4.84113,0,0,4.409578,-4906.674637,1402.530567)">
                <path d="M5759.757,1403.752L5759.907,1405.052C5759.774,1405.152 5758.224,1405.752 5755.257,1406.852C5754.857,1409.052 5754.349,1411.227 5753.732,1413.377C5753.115,1415.527 5752.499,1417.16 5751.882,1418.277C5751.265,1419.393 5750.54,1420.502 5749.707,1421.602C5748.04,1423.802 5745.79,1424.902 5742.957,1424.902C5741.557,1424.902 5740.44,1424.468 5739.607,1423.602C5738.774,1422.735 5738.357,1421.552 5738.357,1420.052C5738.357,1414.285 5743.19,1409.652 5752.857,1406.152L5755.557,1396.652C5752.69,1400.952 5750.107,1403.602 5747.807,1404.602C5746.674,1405.135 5745.482,1405.402 5744.232,1405.402C5742.982,1405.402 5741.982,1405.002 5741.232,1404.202C5740.482,1403.402 5740.107,1402.235 5740.107,1400.702C5740.107,1399.168 5740.632,1397.027 5741.682,1394.277C5742.732,1391.527 5743.907,1389.218 5745.207,1387.352L5747.657,1388.402C5747.557,1388.502 5747.09,1389.385 5746.257,1391.052C5744.79,1394.085 5744.057,1396.335 5744.057,1397.802C5744.057,1399.268 5744.34,1400.252 5744.907,1400.752C5745.474,1401.252 5746.307,1401.502 5747.407,1401.502C5748.507,1401.502 5749.749,1400.843 5751.132,1399.527C5752.515,1398.21 5754.657,1395.602 5757.557,1391.702L5759.357,1392.752C5759.09,1393.852 5758.499,1395.843 5757.582,1398.727C5756.665,1401.61 5756.04,1403.818 5755.707,1405.352L5759.757,1403.752ZM5752.557,1407.652C5750.457,1408.618 5748.607,1409.718 5747.007,1410.952C5744.007,1413.218 5742.507,1415.418 5742.507,1417.552C5742.507,1418.352 5742.74,1419.002 5743.207,1419.502C5743.674,1420.002 5744.257,1420.252 5744.957,1420.252C5748.29,1420.252 5750.824,1416.052 5752.557,1407.652Z" style="fill:white;fill-rule:nonzero;"/>
            </g>
            <g transform="matrix(4.84113,0,0,4.409578,-4906.674637,1402.530567)">
                <path d="M5799.757,1401.002L5800.907,1401.902C5799.874,1403.335 5798.457,1404.527 5796.657,1405.477C5794.857,1406.427 5793.107,1406.902 5791.407,1406.902C5789.707,1406.902 5788.34,1406.402 5787.307,1405.402C5786.274,1404.402 5785.757,1403.085 5785.757,1401.452C5785.757,1398.385 5787.382,1395.368 5790.632,1392.402C5793.882,1389.435 5797.174,1387.952 5800.507,1387.952C5802.707,1387.952 5803.807,1388.818 5803.807,1390.552C5803.807,1392.352 5802.649,1394.168 5800.332,1396.002C5798.015,1397.835 5794.757,1399.502 5790.557,1401.002C5790.857,1401.768 5791.324,1402.368 5791.957,1402.802C5792.59,1403.235 5793.24,1403.452 5793.907,1403.452C5795.34,1403.452 5797.29,1402.635 5799.757,1401.002ZM5790.307,1399.502C5793.007,1398.568 5795.324,1397.402 5797.257,1396.002C5799.19,1394.602 5800.157,1393.318 5800.157,1392.152C5800.157,1391.718 5799.99,1391.335 5799.657,1391.002C5799.324,1390.668 5798.94,1390.502 5798.507,1390.502C5796.94,1390.502 5795.249,1391.477 5793.432,1393.427C5791.615,1395.377 5790.574,1397.402 5790.307,1399.502Z" style="fill:white;fill-rule:nonzero;"/>
            </g>
            <g transform="matrix(4.84113,0,0,4.409578,-4906.674637,1402.530567)">
                <path d="M5825.757,1400.852L5826.807,1401.652C5826.074,1403.118 5825.065,1404.352 5823.782,1405.352C5822.499,1406.352 5821.34,1406.852 5820.307,1406.852C5819.274,1406.852 5818.457,1406.552 5817.857,1405.952C5817.257,1405.352 5816.957,1404.602 5816.957,1403.702C5816.957,1402.802 5817.532,1401.227 5818.682,1398.977C5819.832,1396.727 5820.407,1395.068 5820.407,1394.002C5820.407,1393.535 5820.215,1393.11 5819.832,1392.727C5819.449,1392.343 5818.99,1392.152 5818.457,1392.152C5816.757,1392.152 5815.04,1393.443 5813.307,1396.027C5811.574,1398.61 5809.64,1402.335 5807.507,1407.202L5804.507,1406.152C5805.14,1402.285 5806.049,1398.51 5807.232,1394.827C5808.415,1391.143 5809.507,1388.502 5810.507,1386.902L5812.557,1387.552C5811.624,1389.918 5810.44,1394.002 5809.007,1399.802C5813.607,1391.935 5817.84,1388.002 5821.707,1388.002C5822.54,1388.002 5823.232,1388.285 5823.782,1388.852C5824.332,1389.418 5824.607,1390.085 5824.607,1390.852C5824.607,1391.618 5824.507,1392.31 5824.307,1392.927C5824.107,1393.543 5823.482,1394.977 5822.432,1397.227C5821.382,1399.477 5820.857,1400.885 5820.857,1401.452C5820.857,1402.018 5821.024,1402.46 5821.357,1402.777C5821.69,1403.093 5822.007,1403.252 5822.307,1403.252C5822.607,1403.252 5822.857,1403.202 5823.057,1403.102C5823.257,1403.002 5823.482,1402.852 5823.732,1402.652C5823.982,1402.452 5824.207,1402.268 5824.407,1402.102C5824.607,1401.935 5824.849,1401.71 5825.132,1401.427C5825.415,1401.143 5825.624,1400.952 5825.757,1400.852Z" style="fill:white;fill-rule:nonzero;"/>
            </g>
            <g transform="matrix(4.84113,0,0,4.409578,-4906.674637,1402.530567)">
                <path d="M5848.957,1400.852L5850.007,1401.652C5849.274,1403.118 5848.265,1404.352 5846.982,1405.352C5845.699,1406.352 5844.54,1406.852 5843.507,1406.852C5842.474,1406.852 5841.657,1406.552 5841.057,1405.952C5840.457,1405.352 5840.157,1404.602 5840.157,1403.702C5840.157,1402.802 5840.732,1401.227 5841.882,1398.977C5843.032,1396.727 5843.607,1395.068 5843.607,1394.002C5843.607,1393.535 5843.415,1393.11 5843.032,1392.727C5842.649,1392.343 5842.19,1392.152 5841.657,1392.152C5839.957,1392.152 5838.24,1393.443 5836.507,1396.027C5834.774,1398.61 5832.84,1402.335 5830.707,1407.202L5827.707,1406.152C5828.34,1402.285 5829.249,1398.51 5830.432,1394.827C5831.615,1391.143 5832.707,1388.502 5833.707,1386.902L5835.757,1387.552C5834.824,1389.918 5833.64,1394.002 5832.207,1399.802C5836.807,1391.935 5841.04,1388.002 5844.907,1388.002C5845.74,1388.002 5846.432,1388.285 5846.982,1388.852C5847.532,1389.418 5847.807,1390.085 5847.807,1390.852C5847.807,1391.618 5847.707,1392.31 5847.507,1392.927C5847.307,1393.543 5846.682,1394.977 5845.632,1397.227C5844.582,1399.477 5844.057,1400.885 5844.057,1401.452C5844.057,1402.018 5844.224,1402.46 5844.557,1402.777C5844.89,1403.093 5845.207,1403.252 5845.507,1403.252C5845.807,1403.252 5846.057,1403.202 5846.257,1403.102C5846.457,1403.002 5846.682,1402.852 5846.932,1402.652C5847.182,1402.452 5847.407,1402.268 5847.607,1402.102C5847.807,1401.935 5848.049,1401.71 5848.332,1401.427C5848.615,1401.143 5848.824,1400.952 5848.957,1400.852Z" style="fill:white;fill-rule:nonzero;"/>
            </g>
            <g transform="matrix(4.84113,0,0,4.409578,-4906.674637,1402.530567)">
                <path d="M5865.207,1401.002L5866.357,1401.902C5865.324,1403.335 5863.907,1404.527 5862.107,1405.477C5860.307,1406.427 5858.557,1406.902 5856.857,1406.902C5855.157,1406.902 5853.79,1406.402 5852.757,1405.402C5851.724,1404.402 5851.207,1403.085 5851.207,1401.452C5851.207,1398.385 5852.832,1395.368 5856.082,1392.402C5859.332,1389.435 5862.624,1387.952 5865.957,1387.952C5868.157,1387.952 5869.257,1388.818 5869.257,1390.552C5869.257,1392.352 5868.099,1394.168 5865.782,1396.002C5863.465,1397.835 5860.207,1399.502 5856.007,1401.002C5856.307,1401.768 5856.774,1402.368 5857.407,1402.802C5858.04,1403.235 5858.69,1403.452 5859.357,1403.452C5860.79,1403.452 5862.74,1402.635 5865.207,1401.002ZM5855.757,1399.502C5858.457,1398.568 5860.774,1397.402 5862.707,1396.002C5864.64,1394.602 5865.607,1393.318 5865.607,1392.152C5865.607,1391.718 5865.44,1391.335 5865.107,1391.002C5864.774,1390.668 5864.39,1390.502 5863.957,1390.502C5862.39,1390.502 5860.699,1391.477 5858.882,1393.427C5857.065,1395.377 5856.024,1397.402 5855.757,1399.502Z" style="fill:white;fill-rule:nonzero;"/>
            </g>
            <g transform="matrix(4.84113,0,0,4.409578,-4906.674637,1402.530567)">
                <path d="M5884.257,1389.202C5885.09,1389.202 5885.774,1389.485 5886.307,1390.052C5886.84,1390.618 5887.107,1391.352 5887.107,1392.252C5887.107,1394.052 5886.074,1395.952 5884.007,1397.952L5882.807,1397.002C5883.274,1395.968 5883.507,1395.218 5883.507,1394.752C5883.507,1393.852 5883.007,1393.402 5882.007,1393.402C5881.007,1393.402 5880.057,1394.035 5879.157,1395.302C5878.257,1396.568 5877.199,1398.527 5875.982,1401.177C5874.765,1403.827 5873.84,1405.702 5873.207,1406.802L5870.357,1405.552C5872.19,1401.385 5873.24,1398.935 5873.507,1398.202C5874.407,1395.602 5874.857,1392.302 5874.857,1388.302L5877.657,1387.552C5877.557,1389.718 5877.407,1391.393 5877.207,1392.577C5877.007,1393.76 5876.524,1395.685 5875.757,1398.352C5879.124,1392.252 5881.957,1389.202 5884.257,1389.202Z" style="fill:white;fill-rule:nonzero;"/>
            </g>
            <g transform="matrix(4.84113,0,0,4.409578,-4906.674637,1402.530567)">
                <path d="M5909.557,1405.102L5909.607,1406.302C5909.274,1406.502 5907.757,1407.102 5905.057,1408.102C5903.99,1414.468 5902.424,1419.068 5900.357,1421.902C5898.29,1424.735 5895.757,1426.152 5892.757,1426.152C5891.357,1426.152 5890.24,1425.702 5889.407,1424.802C5888.574,1423.902 5888.157,1422.735 5888.157,1421.302C5888.157,1418.435 5889.474,1415.76 5892.107,1413.277C5894.74,1410.793 5898.257,1408.835 5902.657,1407.402C5903.157,1405.168 5904.057,1402.018 5905.357,1397.952C5903.124,1401.352 5901.099,1403.652 5899.282,1404.852C5897.465,1406.052 5895.824,1406.652 5894.357,1406.652C5892.89,1406.652 5891.782,1406.252 5891.032,1405.452C5890.282,1404.652 5889.907,1403.585 5889.907,1402.252C5889.907,1400.052 5890.824,1397.81 5892.657,1395.527C5894.49,1393.243 5896.799,1391.377 5899.582,1389.927C5902.365,1388.477 5905.057,1387.752 5907.657,1387.752L5908.057,1389.502C5904.357,1389.902 5901.182,1391.202 5898.532,1393.402C5895.882,1395.602 5894.557,1397.718 5894.557,1399.752C5894.557,1400.618 5894.824,1401.335 5895.357,1401.902C5895.89,1402.468 5896.54,1402.752 5897.307,1402.752C5898.44,1402.752 5900.157,1401.552 5902.457,1399.152C5904.757,1396.752 5906.374,1394.702 5907.307,1393.002L5909.157,1394.052C5907.324,1398.952 5906.057,1403.085 5905.357,1406.452L5909.557,1405.102ZM5902.357,1408.902C5899.457,1410.235 5897.057,1411.835 5895.157,1413.702C5893.257,1415.568 5892.307,1417.268 5892.307,1418.802C5892.307,1419.602 5892.54,1420.252 5893.007,1420.752C5893.474,1421.252 5894.057,1421.502 5894.757,1421.502C5896.157,1421.502 5897.54,1420.518 5898.907,1418.552C5900.274,1416.585 5901.424,1413.368 5902.357,1408.902Z" style="fill:white;fill-rule:nonzero;"/>
            </g>
            <g transform="matrix(4.84113,0,0,4.409578,-4906.674637,1402.530567)">
                <path d="M5930.407,1403.752L5930.557,1405.052C5930.424,1405.152 5928.874,1405.752 5925.907,1406.852C5925.507,1409.052 5924.999,1411.227 5924.382,1413.377C5923.765,1415.527 5923.149,1417.16 5922.532,1418.277C5921.915,1419.393 5921.19,1420.502 5920.357,1421.602C5918.69,1423.802 5916.44,1424.902 5913.607,1424.902C5912.207,1424.902 5911.09,1424.468 5910.257,1423.602C5909.424,1422.735 5909.007,1421.552 5909.007,1420.052C5909.007,1414.285 5913.84,1409.652 5923.507,1406.152L5926.207,1396.652C5923.34,1400.952 5920.757,1403.602 5918.457,1404.602C5917.324,1405.135 5916.132,1405.402 5914.882,1405.402C5913.632,1405.402 5912.632,1405.002 5911.882,1404.202C5911.132,1403.402 5910.757,1402.235 5910.757,1400.702C5910.757,1399.168 5911.282,1397.027 5912.332,1394.277C5913.382,1391.527 5914.557,1389.218 5915.857,1387.352L5918.307,1388.402C5918.207,1388.502 5917.74,1389.385 5916.907,1391.052C5915.44,1394.085 5914.707,1396.335 5914.707,1397.802C5914.707,1399.268 5914.99,1400.252 5915.557,1400.752C5916.124,1401.252 5916.957,1401.502 5918.057,1401.502C5919.157,1401.502 5920.399,1400.843 5921.782,1399.527C5923.165,1398.21 5925.307,1395.602 5928.207,1391.702L5930.007,1392.752C5929.74,1393.852 5929.149,1395.843 5928.232,1398.727C5927.315,1401.61 5926.69,1403.818 5926.357,1405.352L5930.407,1403.752ZM5923.207,1407.652C5921.107,1408.618 5919.257,1409.718 5917.657,1410.952C5914.657,1413.218 5913.157,1415.418 5913.157,1417.552C5913.157,1418.352 5913.39,1419.002 5913.857,1419.502C5914.324,1420.002 5914.907,1420.252 5915.607,1420.252C5918.94,1420.252 5921.474,1416.052 5923.207,1407.652Z" style="fill:white;fill-rule:nonzero;"/>
            </g>
            <g transform="matrix(4.84113,0,0,4.409578,-4906.674637,1402.530567)">
                <path d="M5968.107,1401.302L5969.207,1402.552C5968.374,1403.852 5967.365,1404.868 5966.182,1405.602C5964.999,1406.335 5963.807,1406.702 5962.607,1406.702C5961.407,1406.702 5960.457,1406.36 5959.757,1405.677C5959.057,1404.993 5958.707,1404.052 5958.707,1402.852C5958.707,1400.052 5959.757,1396.185 5961.857,1391.252C5960.157,1391.518 5958.457,1391.918 5956.757,1392.452L5956.407,1390.502L5956.357,1390.452C5958.024,1389.752 5960.207,1389.185 5962.907,1388.752C5963.174,1388.252 5963.774,1387.035 5964.707,1385.102C5966.574,1381.268 5967.907,1378.785 5968.707,1377.652L5970.857,1378.502C5970.524,1379.235 5969.94,1380.46 5969.107,1382.177C5968.274,1383.893 5967.34,1385.835 5966.307,1388.002C5967.807,1387.902 5968.99,1387.852 5969.857,1387.852C5970.724,1387.852 5971.39,1387.985 5971.857,1388.252L5971.857,1390.402C5971.39,1390.302 5970.715,1390.252 5969.832,1390.252C5968.949,1390.252 5967.374,1390.402 5965.107,1390.702C5963.14,1395.102 5962.157,1398.302 5962.157,1400.302C5962.157,1401.068 5962.399,1401.702 5962.882,1402.202C5963.365,1402.702 5964.015,1402.952 5964.832,1402.952C5965.649,1402.952 5966.74,1402.402 5968.107,1401.302Z" style="fill:white;fill-rule:nonzero;"/>
            </g>
            <g transform="matrix(4.84113,0,0,4.409578,-4906.674637,1402.530567)">
                <path d="M5986.907,1389.202C5987.74,1389.202 5988.424,1389.485 5988.957,1390.052C5989.49,1390.618 5989.757,1391.352 5989.757,1392.252C5989.757,1394.052 5988.724,1395.952 5986.657,1397.952L5985.457,1397.002C5985.924,1395.968 5986.157,1395.218 5986.157,1394.752C5986.157,1393.852 5985.657,1393.402 5984.657,1393.402C5983.657,1393.402 5982.707,1394.035 5981.807,1395.302C5980.907,1396.568 5979.849,1398.527 5978.632,1401.177C5977.415,1403.827 5976.49,1405.702 5975.857,1406.802L5973.007,1405.552C5974.84,1401.385 5975.89,1398.935 5976.157,1398.202C5977.057,1395.602 5977.507,1392.302 5977.507,1388.302L5980.307,1387.552C5980.207,1389.718 5980.057,1391.393 5979.857,1392.577C5979.657,1393.76 5979.174,1395.685 5978.407,1398.352C5981.774,1392.252 5984.607,1389.202 5986.907,1389.202Z" style="fill:white;fill-rule:nonzero;"/>
            </g>
            <g transform="matrix(4.84113,0,0,4.409578,-4906.674637,1402.530567)">
                <path d="M6012.107,1401.852L6013.257,1402.702C6012.79,1403.702 6011.932,1404.652 6010.682,1405.552C6009.432,1406.452 6008.29,1406.902 6007.257,1406.902C6005.29,1406.902 6004.307,1405.868 6004.307,1403.802C6004.307,1402.835 6004.557,1401.685 6005.057,1400.352L6003.207,1402.252C6001.407,1404.085 5999.849,1405.318 5998.532,1405.952C5997.215,1406.585 5995.924,1406.902 5994.657,1406.902C5993.39,1406.902 5992.432,1406.543 5991.782,1405.827C5991.132,1405.11 5990.807,1404.118 5990.807,1402.852C5990.807,1400.518 5991.707,1398.21 5993.507,1395.927C5995.307,1393.643 5997.607,1391.785 6000.407,1390.352C6003.207,1388.918 6006.007,1388.185 6008.807,1388.152L6008.907,1389.802L6006.807,1390.252C6003.774,1390.918 6001.099,1392.252 5998.782,1394.252C5996.465,1396.252 5995.307,1398.243 5995.307,1400.227C5995.307,1402.21 5996.107,1403.202 5997.707,1403.202C5999.207,1403.202 6001.057,1402.152 6003.257,1400.052C6005.457,1397.952 6007.29,1395.485 6008.757,1392.652L6010.857,1393.902C6008.79,1398.068 6007.757,1400.718 6007.757,1401.852C6007.757,1402.318 6007.915,1402.71 6008.232,1403.027C6008.549,1403.343 6008.865,1403.502 6009.182,1403.502C6009.499,1403.502 6009.707,1403.485 6009.807,1403.452C6009.907,1403.418 6010.007,1403.377 6010.107,1403.327C6010.207,1403.277 6010.332,1403.202 6010.482,1403.102C6010.632,1403.002 6010.765,1402.902 6010.882,1402.802C6010.999,1402.702 6011.19,1402.552 6011.457,1402.352C6011.724,1402.152 6011.94,1401.985 6012.107,1401.852Z" style="fill:white;fill-rule:nonzero;"/>
            </g>
            <g transform="matrix(4.84113,0,0,4.409578,-4906.674637,1402.530567)">
                <path d="M6027.657,1399.802L6028.857,1400.802C6028.057,1402.635 6026.774,1404.102 6025.007,1405.202C6023.24,1406.302 6021.532,1406.852 6019.882,1406.852C6018.232,1406.852 6016.865,1406.335 6015.782,1405.302C6014.699,1404.268 6014.157,1402.852 6014.157,1401.052C6014.157,1399.252 6014.94,1397.302 6016.507,1395.202C6018.074,1393.102 6020.099,1391.368 6022.582,1390.002C6025.065,1388.635 6027.507,1387.952 6029.907,1387.952C6030.24,1387.952 6030.74,1387.985 6031.407,1388.052L6031.257,1390.002C6027.59,1390.168 6024.549,1391.285 6022.132,1393.352C6019.715,1395.418 6018.507,1397.618 6018.507,1399.952C6018.507,1400.918 6018.807,1401.702 6019.407,1402.302C6020.007,1402.902 6020.79,1403.202 6021.757,1403.202C6023.29,1403.202 6025.257,1402.068 6027.657,1399.802Z" style="fill:white;fill-rule:nonzero;"/>
            </g>
            <g transform="matrix(4.84113,0,0,4.409578,-4906.674637,1402.530567)">
                <path d="M6052.557,1401.802L6053.807,1402.902C6051.874,1406.068 6049.824,1407.652 6047.657,1407.652C6046.324,1407.652 6044.957,1406.668 6043.557,1404.702C6042.157,1402.735 6041.457,1401.118 6041.457,1399.852C6041.457,1399.052 6042.657,1398.252 6045.057,1397.452C6045.957,1397.152 6046.782,1396.693 6047.532,1396.077C6048.282,1395.46 6048.657,1394.818 6048.657,1394.152C6048.657,1393.485 6048.474,1392.977 6048.107,1392.627C6047.74,1392.277 6047.274,1392.102 6046.707,1392.102C6043.04,1392.435 6039.207,1397.368 6035.207,1406.902L6032.157,1405.852C6032.157,1404.418 6034.099,1398.618 6037.982,1388.452C6041.865,1378.285 6044.624,1372.135 6046.257,1370.002L6048.707,1370.902C6044.207,1378.735 6040.44,1387.835 6037.407,1398.202C6040.007,1394.302 6042.24,1391.702 6044.107,1390.402C6045.974,1389.102 6047.757,1388.452 6049.457,1388.452C6050.49,1388.452 6051.315,1388.768 6051.932,1389.402C6052.549,1390.035 6052.857,1390.843 6052.857,1391.827C6052.857,1392.81 6052.615,1393.702 6052.132,1394.502C6051.649,1395.302 6050.957,1396.002 6050.057,1396.602C6048.757,1397.468 6047.157,1398.318 6045.257,1399.152C6045.557,1400.718 6046.074,1401.902 6046.807,1402.702C6047.54,1403.502 6048.374,1403.902 6049.307,1403.902C6049.807,1403.902 6050.89,1403.202 6052.557,1401.802Z" style="fill:white;fill-rule:nonzero;"/>
            </g>
            <g transform="matrix(4.84113,0,0,4.409578,-4906.674637,1402.530567)">
                <path d="M6069.007,1401.002L6070.157,1401.902C6069.124,1403.335 6067.707,1404.527 6065.907,1405.477C6064.107,1406.427 6062.357,1406.902 6060.657,1406.902C6058.957,1406.902 6057.59,1406.402 6056.557,1405.402C6055.524,1404.402 6055.007,1403.085 6055.007,1401.452C6055.007,1398.385 6056.632,1395.368 6059.882,1392.402C6063.132,1389.435 6066.424,1387.952 6069.757,1387.952C6071.957,1387.952 6073.057,1388.818 6073.057,1390.552C6073.057,1392.352 6071.899,1394.168 6069.582,1396.002C6067.265,1397.835 6064.007,1399.502 6059.807,1401.002C6060.107,1401.768 6060.574,1402.368 6061.207,1402.802C6061.84,1403.235 6062.49,1403.452 6063.157,1403.452C6064.59,1403.452 6066.54,1402.635 6069.007,1401.002ZM6059.557,1399.502C6062.257,1398.568 6064.574,1397.402 6066.507,1396.002C6068.44,1394.602 6069.407,1393.318 6069.407,1392.152C6069.407,1391.718 6069.24,1391.335 6068.907,1391.002C6068.574,1390.668 6068.19,1390.502 6067.757,1390.502C6066.19,1390.502 6064.499,1391.477 6062.682,1393.427C6060.865,1395.377 6059.824,1397.402 6059.557,1399.502Z" style="fill:white;fill-rule:nonzero;"/>
            </g>
            <g transform="matrix(4.84113,0,0,4.409578,-4906.674637,1402.530567)">
                <path d="M6088.057,1389.202C6088.89,1389.202 6089.574,1389.485 6090.107,1390.052C6090.64,1390.618 6090.907,1391.352 6090.907,1392.252C6090.907,1394.052 6089.874,1395.952 6087.807,1397.952L6086.607,1397.002C6087.074,1395.968 6087.307,1395.218 6087.307,1394.752C6087.307,1393.852 6086.807,1393.402 6085.807,1393.402C6084.807,1393.402 6083.857,1394.035 6082.957,1395.302C6082.057,1396.568 6080.999,1398.527 6079.782,1401.177C6078.565,1403.827 6077.64,1405.702 6077.007,1406.802L6074.157,1405.552C6075.99,1401.385 6077.04,1398.935 6077.307,1398.202C6078.207,1395.602 6078.657,1392.302 6078.657,1388.302L6081.457,1387.552C6081.357,1389.718 6081.207,1391.393 6081.007,1392.577C6080.807,1393.76 6080.324,1395.685 6079.557,1398.352C6082.924,1392.252 6085.757,1389.202 6088.057,1389.202Z" style="fill:white;fill-rule:nonzero;"/>
            </g>
        </g>
    </g>
</svg>
